<svg width="24" height="24" viewBox="0 0 16 16" fill="none" xmlns="http://www.w3.org/2000/svg"><path d="M2 3C2 2.44772 2.44772 2 3 2H11.5858C11.851 2 12.1054 2.10536 12.2929 2.29289L13.7071 3.70711C13.8946 3.89464 14 4.149 14 4.41421V13C14 13.5523 13.5523 14 13 14H3C2.44772 14 2 13.5523 2 13V3ZM3.5 3C3.22386 3 3 3.22386 3 3.5V12.5C3 12.7761 3.22386 13 3.5 13H12.5C12.7761 13 13 12.7761 13 12.5V4.70711L11.2929 3H10V5.5C10 5.77614 9.77614 6 9.5 6H5.5C5.22386 6 5 5.77614 5 5.5V3H3.5ZM6 3V5H9V3H6ZM5 9C5 8.44772 5.44772 8 6 8H10C10.5523 8 11 8.44772 11 9V13H5V9ZM6 9V12H10V9H6Z" fill="currentColor"/></svg>
