<svg xmlns="http://www.w3.org/2000/svg" viewBox="0 0 512 512" width="512" height="512">
  <rect x="16" y="16" width="480" height="480" rx="96" ry="96" fill="#1c1917"/>
  <rect x="152.25" y="104.14" width="15.00" height="15.39" rx="2" ry="2" fill="#c49a3c"/>
  <rect x="344.75" y="104.14" width="15.00" height="15.39" rx="2" ry="2" fill="#c49a3c"/>
  <rect x="152.25" y="122.04" width="15.00" height="15.39" rx="2" ry="2" fill="#c09740"/>
  <rect x="169.75" y="122.04" width="15.00" height="15.39" rx="2" ry="2" fill="#c09740"/>
  <rect x="327.25" y="122.04" width="15.00" height="15.39" rx="2" ry="2" fill="#c09740"/>
  <rect x="344.75" y="122.04" width="15.00" height="15.39" rx="2" ry="2" fill="#c09740"/>
  <rect x="134.75" y="139.93" width="15.00" height="15.39" rx="2" ry="2" fill="#bc9445"/>
  <rect x="152.25" y="139.93" width="15.00" height="15.39" rx="2" ry="2" fill="#bc9445"/>
  <rect x="169.75" y="139.93" width="15.00" height="15.39" rx="2" ry="2" fill="#bc9445"/>
  <rect x="327.25" y="139.93" width="15.00" height="15.39" rx="2" ry="2" fill="#bc9445"/>
  <rect x="344.75" y="139.93" width="15.00" height="15.39" rx="2" ry="2" fill="#bc9445"/>
  <rect x="362.25" y="139.93" width="15.00" height="15.39" rx="2" ry="2" fill="#bc9445"/>
  <rect x="134.75" y="157.83" width="15.00" height="15.39" rx="2" ry="2" fill="#b89149"/>
  <rect x="152.25" y="157.83" width="15.00" height="15.39" rx="2" ry="2" fill="#faf6f0"/>
  <rect x="169.75" y="157.83" width="15.00" height="15.39" rx="2" ry="2" fill="#faf6f0"/>
  <rect x="187.25" y="157.83" width="15.00" height="15.39" rx="2" ry="2" fill="#b89149"/>
  <rect x="309.75" y="157.83" width="15.00" height="15.39" rx="2" ry="2" fill="#b89149"/>
  <rect x="327.25" y="157.83" width="15.00" height="15.39" rx="2" ry="2" fill="#faf6f0"/>
  <rect x="344.75" y="157.83" width="15.00" height="15.39" rx="2" ry="2" fill="#faf6f0"/>
  <rect x="362.25" y="157.83" width="15.00" height="15.39" rx="2" ry="2" fill="#b89149"/>
  <rect x="134.75" y="175.72" width="15.00" height="15.39" rx="2" ry="2" fill="#b48e4e"/>
  <rect x="152.25" y="175.72" width="15.00" height="15.39" rx="2" ry="2" fill="#faf6f0"/>
  <rect x="169.75" y="175.72" width="15.00" height="15.39" rx="2" ry="2" fill="#faf6f0"/>
  <rect x="187.25" y="175.72" width="15.00" height="15.39" rx="2" ry="2" fill="#faf6f0"/>
  <rect x="204.75" y="175.72" width="15.00" height="15.39" rx="2" ry="2" fill="#b48e4e"/>
  <rect x="292.25" y="175.72" width="15.00" height="15.39" rx="2" ry="2" fill="#b48e4e"/>
  <rect x="309.75" y="175.72" width="15.00" height="15.39" rx="2" ry="2" fill="#faf6f0"/>
  <rect x="327.25" y="175.72" width="15.00" height="15.39" rx="2" ry="2" fill="#faf6f0"/>
  <rect x="344.75" y="175.72" width="15.00" height="15.39" rx="2" ry="2" fill="#faf6f0"/>
  <rect x="362.25" y="175.72" width="15.00" height="15.39" rx="2" ry="2" fill="#b48e4e"/>
  <rect x="134.75" y="193.62" width="15.00" height="15.39" rx="2" ry="2" fill="#b08b52"/>
  <rect x="152.25" y="193.62" width="15.00" height="15.39" rx="2" ry="2" fill="#faf6f0"/>
  <rect x="169.75" y="193.62" width="15.00" height="15.39" rx="2" ry="2" fill="#faf6f0"/>
  <rect x="187.25" y="193.62" width="15.00" height="15.39" rx="2" ry="2" fill="#faf6f0"/>
  <rect x="204.75" y="193.62" width="15.00" height="15.39" rx="2" ry="2" fill="#faf6f0"/>
  <rect x="222.25" y="193.62" width="15.00" height="15.39" rx="2" ry="2" fill="#b08b52"/>
  <rect x="274.75" y="193.62" width="15.00" height="15.39" rx="2" ry="2" fill="#b08b52"/>
  <rect x="292.25" y="193.62" width="15.00" height="15.39" rx="2" ry="2" fill="#faf6f0"/>
  <rect x="309.75" y="193.62" width="15.00" height="15.39" rx="2" ry="2" fill="#faf6f0"/>
  <rect x="327.25" y="193.62" width="15.00" height="15.39" rx="2" ry="2" fill="#faf6f0"/>
  <rect x="344.75" y="193.62" width="15.00" height="15.39" rx="2" ry="2" fill="#faf6f0"/>
  <rect x="362.25" y="193.62" width="15.00" height="15.39" rx="2" ry="2" fill="#b08b52"/>
  <rect x="134.75" y="211.51" width="15.00" height="15.39" rx="2" ry="2" fill="#ac8857"/>
  <rect x="152.25" y="211.51" width="15.00" height="15.39" rx="2" ry="2" fill="#faf6f0"/>
  <rect x="169.75" y="211.51" width="15.00" height="15.39" rx="2" ry="2" fill="#faf6f0"/>
  <rect x="187.25" y="211.51" width="15.00" height="15.39" rx="2" ry="2" fill="#faf6f0"/>
  <rect x="204.75" y="211.51" width="15.00" height="15.39" rx="2" ry="2" fill="#faf6f0"/>
  <rect x="222.25" y="211.51" width="15.00" height="15.39" rx="2" ry="2" fill="#faf6f0"/>
  <rect x="239.75" y="211.51" width="15.00" height="15.39" rx="2" ry="2" fill="#ac8857"/>
  <rect x="257.25" y="211.51" width="15.00" height="15.39" rx="2" ry="2" fill="#ac8857"/>
  <rect x="274.75" y="211.51" width="15.00" height="15.39" rx="2" ry="2" fill="#faf6f0"/>
  <rect x="292.25" y="211.51" width="15.00" height="15.39" rx="2" ry="2" fill="#faf6f0"/>
  <rect x="309.75" y="211.51" width="15.00" height="15.39" rx="2" ry="2" fill="#faf6f0"/>
  <rect x="327.25" y="211.51" width="15.00" height="15.39" rx="2" ry="2" fill="#faf6f0"/>
  <rect x="344.75" y="211.51" width="15.00" height="15.39" rx="2" ry="2" fill="#faf6f0"/>
  <rect x="362.25" y="211.51" width="15.00" height="15.39" rx="2" ry="2" fill="#ac8857"/>
  <rect x="117.25" y="229.41" width="15.00" height="15.39" rx="2" ry="2" fill="#a8855c"/>
  <rect x="134.75" y="229.41" width="15.00" height="15.39" rx="2" ry="2" fill="#a8855c"/>
  <rect x="152.25" y="229.41" width="15.00" height="15.39" rx="2" ry="2" fill="#faf6f0"/>
  <rect x="169.75" y="229.41" width="15.00" height="15.39" rx="2" ry="2" fill="#faf6f0"/>
  <rect x="187.25" y="229.41" width="15.00" height="15.39" rx="2" ry="2" fill="#faf6f0"/>
  <rect x="204.75" y="229.41" width="15.00" height="15.39" rx="2" ry="2" fill="#faf6f0"/>
  <rect x="222.25" y="229.41" width="15.00" height="15.39" rx="2" ry="2" fill="#faf6f0"/>
  <rect x="239.75" y="229.41" width="15.00" height="15.39" rx="2" ry="2" fill="#faf6f0"/>
  <rect x="257.25" y="229.41" width="15.00" height="15.39" rx="2" ry="2" fill="#faf6f0"/>
  <rect x="274.75" y="229.41" width="15.00" height="15.39" rx="2" ry="2" fill="#faf6f0"/>
  <rect x="292.25" y="229.41" width="15.00" height="15.39" rx="2" ry="2" fill="#faf6f0"/>
  <rect x="309.75" y="229.41" width="15.00" height="15.39" rx="2" ry="2" fill="#faf6f0"/>
  <rect x="327.25" y="229.41" width="15.00" height="15.39" rx="2" ry="2" fill="#faf6f0"/>
  <rect x="344.75" y="229.41" width="15.00" height="15.39" rx="2" ry="2" fill="#faf6f0"/>
  <rect x="362.25" y="229.41" width="15.00" height="15.39" rx="2" ry="2" fill="#a8855c"/>
  <rect x="379.75" y="229.41" width="15.00" height="15.39" rx="2" ry="2" fill="#a8855c"/>
  <rect x="117.25" y="247.30" width="15.00" height="15.39" rx="2" ry="2" fill="#faf6f0"/>
  <rect x="134.75" y="247.30" width="15.00" height="15.39" rx="2" ry="2" fill="#faf6f0"/>
  <rect x="152.25" y="247.30" width="15.00" height="15.39" rx="2" ry="2" fill="#faf6f0"/>
  <rect x="169.75" y="247.30" width="15.00" height="15.39" rx="2" ry="2" fill="#faf6f0"/>
  <rect x="187.25" y="247.30" width="15.00" height="15.39" rx="2" ry="2" fill="#faf6f0"/>
  <rect x="204.75" y="247.30" width="15.00" height="15.39" rx="2" ry="2" fill="#faf6f0"/>
  <rect x="222.25" y="247.30" width="15.00" height="15.39" rx="2" ry="2" fill="#faf6f0"/>
  <rect x="239.75" y="247.30" width="15.00" height="15.39" rx="2" ry="2" fill="#faf6f0"/>
  <rect x="257.25" y="247.30" width="15.00" height="15.39" rx="2" ry="2" fill="#faf6f0"/>
  <rect x="274.75" y="247.30" width="15.00" height="15.39" rx="2" ry="2" fill="#faf6f0"/>
  <rect x="292.25" y="247.30" width="15.00" height="15.39" rx="2" ry="2" fill="#faf6f0"/>
  <rect x="309.75" y="247.30" width="15.00" height="15.39" rx="2" ry="2" fill="#faf6f0"/>
  <rect x="327.25" y="247.30" width="15.00" height="15.39" rx="2" ry="2" fill="#faf6f0"/>
  <rect x="344.75" y="247.30" width="15.00" height="15.39" rx="2" ry="2" fill="#faf6f0"/>
  <rect x="362.25" y="247.30" width="15.00" height="15.39" rx="2" ry="2" fill="#faf6f0"/>
  <rect x="379.75" y="247.30" width="15.00" height="15.39" rx="2" ry="2" fill="#faf6f0"/>
  <rect x="117.25" y="265.20" width="15.00" height="15.39" rx="2" ry="2" fill="#faf6f0"/>
  <rect x="134.75" y="265.20" width="15.00" height="15.39" rx="2" ry="2" fill="#faf6f0"/>
  <rect x="152.25" y="265.20" width="15.00" height="15.39" rx="2" ry="2" fill="#faf6f0"/>
  <rect x="169.75" y="265.20" width="15.00" height="15.39" rx="2" ry="2" fill="#faf6f0"/>
  <rect x="187.25" y="265.20" width="15.00" height="15.39" rx="2" ry="2" fill="#faf6f0"/>
  <rect x="204.75" y="265.20" width="15.00" height="15.39" rx="2" ry="2" fill="#faf6f0"/>
  <rect x="222.25" y="265.20" width="15.00" height="15.39" rx="2" ry="2" fill="#faf6f0"/>
  <rect x="239.75" y="265.20" width="15.00" height="15.39" rx="2" ry="2" fill="#faf6f0"/>
  <rect x="257.25" y="265.20" width="15.00" height="15.39" rx="2" ry="2" fill="#faf6f0"/>
  <rect x="274.75" y="265.20" width="15.00" height="15.39" rx="2" ry="2" fill="#faf6f0"/>
  <rect x="292.25" y="265.20" width="15.00" height="15.39" rx="2" ry="2" fill="#faf6f0"/>
  <rect x="309.75" y="265.20" width="15.00" height="15.39" rx="2" ry="2" fill="#faf6f0"/>
  <rect x="327.25" y="265.20" width="15.00" height="15.39" rx="2" ry="2" fill="#faf6f0"/>
  <rect x="344.75" y="265.20" width="15.00" height="15.39" rx="2" ry="2" fill="#faf6f0"/>
  <rect x="362.25" y="265.20" width="15.00" height="15.39" rx="2" ry="2" fill="#faf6f0"/>
  <rect x="379.75" y="265.20" width="15.00" height="15.39" rx="2" ry="2" fill="#faf6f0"/>
  <rect x="117.25" y="283.09" width="15.00" height="15.39" rx="2" ry="2" fill="#faf6f0"/>
  <rect x="134.75" y="283.09" width="15.00" height="15.39" rx="2" ry="2" fill="#faf6f0"/>
  <rect x="152.25" y="283.09" width="15.00" height="15.39" rx="2" ry="2" fill="#faf6f0"/>
  <rect x="169.75" y="283.09" width="15.00" height="15.39" rx="2" ry="2" fill="#faf6f0"/>
  <rect x="187.25" y="283.09" width="15.00" height="15.39" rx="2" ry="2" fill="#5c4028"/>
  <rect x="204.75" y="283.09" width="15.00" height="15.39" rx="2" ry="2" fill="#faf6f0"/>
  <rect x="222.25" y="283.09" width="15.00" height="15.39" rx="2" ry="2" fill="#faf6f0"/>
  <rect x="239.75" y="283.09" width="15.00" height="15.39" rx="2" ry="2" fill="#faf6f0"/>
  <rect x="257.25" y="283.09" width="15.00" height="15.39" rx="2" ry="2" fill="#faf6f0"/>
  <rect x="274.75" y="283.09" width="15.00" height="15.39" rx="2" ry="2" fill="#faf6f0"/>
  <rect x="292.25" y="283.09" width="15.00" height="15.39" rx="2" ry="2" fill="#faf6f0"/>
  <rect x="309.75" y="283.09" width="15.00" height="15.39" rx="2" ry="2" fill="#5c4028"/>
  <rect x="327.25" y="283.09" width="15.00" height="15.39" rx="2" ry="2" fill="#faf6f0"/>
  <rect x="344.75" y="283.09" width="15.00" height="15.39" rx="2" ry="2" fill="#faf6f0"/>
  <rect x="362.25" y="283.09" width="15.00" height="15.39" rx="2" ry="2" fill="#faf6f0"/>
  <rect x="379.75" y="283.09" width="15.00" height="15.39" rx="2" ry="2" fill="#faf6f0"/>
  <rect x="117.25" y="300.99" width="15.00" height="15.39" rx="2" ry="2" fill="#faf6f0"/>
  <rect x="134.75" y="300.99" width="15.00" height="15.39" rx="2" ry="2" fill="#faf6f0"/>
  <rect x="152.25" y="300.99" width="15.00" height="15.39" rx="2" ry="2" fill="#faf6f0"/>
  <rect x="169.75" y="300.99" width="15.00" height="15.39" rx="2" ry="2" fill="#faf6f0"/>
  <rect x="187.25" y="300.99" width="15.00" height="15.39" rx="2" ry="2" fill="#5c4028"/>
  <rect x="204.75" y="300.99" width="15.00" height="15.39" rx="2" ry="2" fill="#faf6f0"/>
  <rect x="222.25" y="300.99" width="15.00" height="15.39" rx="2" ry="2" fill="#faf6f0"/>
  <rect x="239.75" y="300.99" width="15.00" height="15.39" rx="2" ry="2" fill="#faf6f0"/>
  <rect x="257.25" y="300.99" width="15.00" height="15.39" rx="2" ry="2" fill="#faf6f0"/>
  <rect x="274.75" y="300.99" width="15.00" height="15.39" rx="2" ry="2" fill="#faf6f0"/>
  <rect x="292.25" y="300.99" width="15.00" height="15.39" rx="2" ry="2" fill="#faf6f0"/>
  <rect x="309.75" y="300.99" width="15.00" height="15.39" rx="2" ry="2" fill="#5c4028"/>
  <rect x="327.25" y="300.99" width="15.00" height="15.39" rx="2" ry="2" fill="#faf6f0"/>
  <rect x="344.75" y="300.99" width="15.00" height="15.39" rx="2" ry="2" fill="#faf6f0"/>
  <rect x="362.25" y="300.99" width="15.00" height="15.39" rx="2" ry="2" fill="#faf6f0"/>
  <rect x="379.75" y="300.99" width="15.00" height="15.39" rx="2" ry="2" fill="#faf6f0"/>
  <rect x="134.75" y="318.88" width="15.00" height="15.39" rx="2" ry="2" fill="#faf6f0"/>
  <rect x="152.25" y="318.88" width="15.00" height="15.39" rx="2" ry="2" fill="#faf6f0"/>
  <rect x="169.75" y="318.88" width="15.00" height="15.39" rx="2" ry="2" fill="#faf6f0"/>
  <rect x="187.25" y="318.88" width="15.00" height="15.39" rx="2" ry="2" fill="#faf6f0"/>
  <rect x="204.75" y="318.88" width="15.00" height="15.39" rx="2" ry="2" fill="#faf6f0"/>
  <rect x="222.25" y="318.88" width="15.00" height="15.39" rx="2" ry="2" fill="#faf6f0"/>
  <rect x="239.75" y="318.88" width="15.00" height="15.39" rx="2" ry="2" fill="#faf6f0"/>
  <rect x="257.25" y="318.88" width="15.00" height="15.39" rx="2" ry="2" fill="#faf6f0"/>
  <rect x="274.75" y="318.88" width="15.00" height="15.39" rx="2" ry="2" fill="#faf6f0"/>
  <rect x="292.25" y="318.88" width="15.00" height="15.39" rx="2" ry="2" fill="#faf6f0"/>
  <rect x="309.75" y="318.88" width="15.00" height="15.39" rx="2" ry="2" fill="#faf6f0"/>
  <rect x="327.25" y="318.88" width="15.00" height="15.39" rx="2" ry="2" fill="#faf6f0"/>
  <rect x="344.75" y="318.88" width="15.00" height="15.39" rx="2" ry="2" fill="#faf6f0"/>
  <rect x="362.25" y="318.88" width="15.00" height="15.39" rx="2" ry="2" fill="#faf6f0"/>
  <rect x="134.75" y="336.78" width="15.00" height="15.39" rx="2" ry="2" fill="#faf6f0"/>
  <rect x="152.25" y="336.78" width="15.00" height="15.39" rx="2" ry="2" fill="#faf6f0"/>
  <rect x="169.75" y="336.78" width="15.00" height="15.39" rx="2" ry="2" fill="#faf6f0"/>
  <rect x="187.25" y="336.78" width="15.00" height="15.39" rx="2" ry="2" fill="#faf6f0"/>
  <rect x="204.75" y="336.78" width="15.00" height="15.39" rx="2" ry="2" fill="#faf6f0"/>
  <rect x="222.25" y="336.78" width="15.00" height="15.39" rx="2" ry="2" fill="#faf6f0"/>
  <rect x="239.75" y="336.78" width="15.00" height="15.39" rx="2" ry="2" fill="#faf6f0"/>
  <rect x="257.25" y="336.78" width="15.00" height="15.39" rx="2" ry="2" fill="#faf6f0"/>
  <rect x="274.75" y="336.78" width="15.00" height="15.39" rx="2" ry="2" fill="#faf6f0"/>
  <rect x="292.25" y="336.78" width="15.00" height="15.39" rx="2" ry="2" fill="#faf6f0"/>
  <rect x="309.75" y="336.78" width="15.00" height="15.39" rx="2" ry="2" fill="#faf6f0"/>
  <rect x="327.25" y="336.78" width="15.00" height="15.39" rx="2" ry="2" fill="#faf6f0"/>
  <rect x="344.75" y="336.78" width="15.00" height="15.39" rx="2" ry="2" fill="#faf6f0"/>
  <rect x="362.25" y="336.78" width="15.00" height="15.39" rx="2" ry="2" fill="#faf6f0"/>
  <rect x="134.75" y="354.67" width="15.00" height="15.39" rx="2" ry="2" fill="#faf6f0"/>
  <rect x="152.25" y="354.67" width="15.00" height="15.39" rx="2" ry="2" fill="#faf6f0"/>
  <rect x="169.75" y="354.67" width="15.00" height="15.39" rx="2" ry="2" fill="#faf6f0"/>
  <rect x="187.25" y="354.67" width="15.00" height="15.39" rx="2" ry="2" fill="#faf6f0"/>
  <rect x="204.75" y="354.67" width="15.00" height="15.39" rx="2" ry="2" fill="#faf6f0"/>
  <rect x="222.25" y="354.67" width="15.00" height="15.39" rx="2" ry="2" fill="#faf6f0"/>
  <rect x="239.75" y="354.67" width="15.00" height="15.39" rx="2" ry="2" fill="#faf6f0"/>
  <rect x="257.25" y="354.67" width="15.00" height="15.39" rx="2" ry="2" fill="#faf6f0"/>
  <rect x="274.75" y="354.67" width="15.00" height="15.39" rx="2" ry="2" fill="#faf6f0"/>
  <rect x="292.25" y="354.67" width="15.00" height="15.39" rx="2" ry="2" fill="#faf6f0"/>
  <rect x="309.75" y="354.67" width="15.00" height="15.39" rx="2" ry="2" fill="#faf6f0"/>
  <rect x="327.25" y="354.67" width="15.00" height="15.39" rx="2" ry="2" fill="#faf6f0"/>
  <rect x="344.75" y="354.67" width="15.00" height="15.39" rx="2" ry="2" fill="#faf6f0"/>
  <rect x="362.25" y="354.67" width="15.00" height="15.39" rx="2" ry="2" fill="#faf6f0"/>
  <rect x="152.25" y="372.57" width="15.00" height="15.39" rx="2" ry="2" fill="#faf6f0"/>
  <rect x="169.75" y="372.57" width="15.00" height="15.39" rx="2" ry="2" fill="#faf6f0"/>
  <rect x="187.25" y="372.57" width="15.00" height="15.39" rx="2" ry="2" fill="#faf6f0"/>
  <rect x="204.75" y="372.57" width="15.00" height="15.39" rx="2" ry="2" fill="#faf6f0"/>
  <rect x="222.25" y="372.57" width="15.00" height="15.39" rx="2" ry="2" fill="#faf6f0"/>
  <rect x="239.75" y="372.57" width="15.00" height="15.39" rx="2" ry="2" fill="#faf6f0"/>
  <rect x="257.25" y="372.57" width="15.00" height="15.39" rx="2" ry="2" fill="#faf6f0"/>
  <rect x="274.75" y="372.57" width="15.00" height="15.39" rx="2" ry="2" fill="#faf6f0"/>
  <rect x="292.25" y="372.57" width="15.00" height="15.39" rx="2" ry="2" fill="#faf6f0"/>
  <rect x="309.75" y="372.57" width="15.00" height="15.39" rx="2" ry="2" fill="#faf6f0"/>
  <rect x="327.25" y="372.57" width="15.00" height="15.39" rx="2" ry="2" fill="#faf6f0"/>
  <rect x="344.75" y="372.57" width="15.00" height="15.39" rx="2" ry="2" fill="#faf6f0"/>
  <rect x="152.25" y="390.46" width="15.00" height="15.39" rx="2" ry="2" fill="#faf6f0"/>
  <rect x="169.75" y="390.46" width="15.00" height="15.39" rx="2" ry="2" fill="#faf6f0"/>
  <rect x="187.25" y="390.46" width="15.00" height="15.39" rx="2" ry="2" fill="#faf6f0"/>
  <rect x="204.75" y="390.46" width="15.00" height="15.39" rx="2" ry="2" fill="#faf6f0"/>
  <rect x="222.25" y="390.46" width="15.00" height="15.39" rx="2" ry="2" fill="#faf6f0"/>
  <rect x="239.75" y="390.46" width="15.00" height="15.39" rx="2" ry="2" fill="#faf6f0"/>
  <rect x="257.25" y="390.46" width="15.00" height="15.39" rx="2" ry="2" fill="#faf6f0"/>
  <rect x="274.75" y="390.46" width="15.00" height="15.39" rx="2" ry="2" fill="#faf6f0"/>
  <rect x="292.25" y="390.46" width="15.00" height="15.39" rx="2" ry="2" fill="#faf6f0"/>
  <rect x="309.75" y="390.46" width="15.00" height="15.39" rx="2" ry="2" fill="#faf6f0"/>
  <rect x="327.25" y="390.46" width="15.00" height="15.39" rx="2" ry="2" fill="#faf6f0"/>
  <rect x="344.75" y="390.46" width="15.00" height="15.39" rx="2" ry="2" fill="#faf6f0"/>
  <rect x="187.25" y="408.36" width="15.00" height="15.39" rx="2" ry="2" fill="#faf6f0"/>
  <rect x="204.75" y="408.36" width="15.00" height="15.39" rx="2" ry="2" fill="#faf6f0"/>
  <rect x="222.25" y="408.36" width="15.00" height="15.39" rx="2" ry="2" fill="#faf6f0"/>
  <rect x="239.75" y="408.36" width="15.00" height="15.39" rx="2" ry="2" fill="#faf6f0"/>
  <rect x="257.25" y="408.36" width="15.00" height="15.39" rx="2" ry="2" fill="#faf6f0"/>
  <rect x="274.75" y="408.36" width="15.00" height="15.39" rx="2" ry="2" fill="#faf6f0"/>
  <rect x="292.25" y="408.36" width="15.00" height="15.39" rx="2" ry="2" fill="#faf6f0"/>
  <rect x="309.75" y="408.36" width="15.00" height="15.39" rx="2" ry="2" fill="#faf6f0"/>
</svg>
